<svg width="54" height="38" viewBox="0 0 54 38" fill="none" xmlns="http://www.w3.org/2000/svg">
<path d="M26.3656 0C10.3244 1.20858 0.765625 11.097 0.765625 22.9631C0.765625 32.5219 6.80854 37.7957 13.2909 37.7957C19.7733 37.7957 25.0472 32.5219 25.0472 26.0395C25.0472 19.8867 20.103 14.6129 13.9502 14.2833C16.1476 10.218 20.7622 8.56995 26.3656 7.80085V0ZM53.3939 0C37.3527 1.20858 27.7939 11.097 27.7939 22.9631C27.7939 32.5219 33.8368 37.7957 40.3192 37.7957C46.8016 37.7957 52.0755 32.5219 52.0755 26.0395C52.0755 19.8867 47.1313 14.6129 40.9785 14.2833C43.1759 10.218 47.7905 8.56995 53.3939 7.80085V0Z" fill="#2872E0"/>
</svg>
