<svg width="19" height="19" viewBox="0 0 19 19" fill="none" xmlns="http://www.w3.org/2000/svg">
<path d="M15.6866 16.1203H13.0216V11.9432C13.0216 10.9472 13.0016 9.66525 11.6316 9.66525C10.2426 9.66525 10.0306 10.7492 10.0306 11.8702V16.1203H7.36456V7.53125H9.92456V8.70125H9.95956C10.3176 8.02725 11.1876 7.31425 12.4876 7.31425C15.1876 7.31425 15.6876 9.09225 15.6876 11.4052V16.1203H15.6866ZM4.35456 6.35625C4.15112 6.35651 3.94962 6.31662 3.76163 6.23886C3.57363 6.16109 3.40283 6.04699 3.25902 5.90309C3.11521 5.75918 3.00122 5.58831 2.92357 5.40026C2.84593 5.21222 2.80617 5.01069 2.80656 4.80725C2.80676 4.50108 2.89774 4.20185 3.068 3.9474C3.23826 3.69294 3.48016 3.49468 3.76309 3.3777C4.04603 3.26072 4.3573 3.23027 4.65754 3.29019C4.95779 3.35011 5.23352 3.49772 5.44987 3.71436C5.66622 3.93099 5.81348 4.20691 5.87301 4.50723C5.93255 4.80755 5.90169 5.11878 5.78434 5.40157C5.667 5.68435 5.46843 5.92599 5.21375 6.09592C4.95908 6.26585 4.66073 6.35645 4.35456 6.35625ZM5.69056 16.1203H3.01756V7.53125H5.69156V16.1203H5.69056ZM17.0216 0.78125H1.68056C0.944562 0.78125 0.351562 1.36125 0.351562 2.07825V17.4842C0.351562 18.2012 0.945563 18.7812 1.67956 18.7812H17.0176C17.7516 18.7812 18.3516 18.2012 18.3516 17.4842V2.07825C18.3516 1.36125 17.7516 0.78125 17.0176 0.78125H17.0216Z" fill="#B3BCC9"/>
</svg>
