<svg width="21" height="21" viewBox="0 0 21 21" fill="none" xmlns="http://www.w3.org/2000/svg">
<path d="M10.3516 0.78125C13.0686 0.78125 13.4076 0.79125 14.4736 0.84125C15.5386 0.89125 16.2636 1.05825 16.9016 1.30625C17.5616 1.56025 18.1176 1.90425 18.6736 2.45925C19.1821 2.95915 19.5755 3.56384 19.8266 4.23125C20.0736 4.86825 20.2416 5.59425 20.2916 6.65925C20.3386 7.72525 20.3516 8.06425 20.3516 10.7812C20.3516 13.4983 20.3416 13.8372 20.2916 14.9032C20.2416 15.9682 20.0736 16.6932 19.8266 17.3312C19.5762 17.999 19.1827 18.6039 18.6736 19.1033C18.1735 19.6116 17.5689 20.005 16.9016 20.2563C16.2646 20.5033 15.5386 20.6713 14.4736 20.7213C13.4076 20.7683 13.0686 20.7812 10.3516 20.7812C7.63456 20.7812 7.29556 20.7713 6.22956 20.7213C5.16456 20.6713 4.43956 20.5033 3.80156 20.2563C3.13389 20.0057 2.52909 19.6122 2.02956 19.1033C1.52097 18.6034 1.12749 17.9987 0.876563 17.3312C0.628563 16.6942 0.461562 15.9682 0.411562 14.9032C0.364562 13.8372 0.351562 13.4983 0.351562 10.7812C0.351562 8.06425 0.361562 7.72525 0.411562 6.65925C0.461562 5.59325 0.628563 4.86925 0.876563 4.23125C1.1268 3.56343 1.52037 2.95857 2.02956 2.45925C2.52923 1.95048 3.13399 1.55698 3.80156 1.30625C4.43956 1.05825 5.16356 0.89125 6.22956 0.84125C7.29556 0.79425 7.63456 0.78125 10.3516 0.78125ZM10.3516 5.78125C9.02548 5.78125 7.75371 6.30803 6.81603 7.24572C5.87835 8.1834 5.35156 9.45517 5.35156 10.7812C5.35156 12.1073 5.87835 13.3791 6.81603 14.3168C7.75371 15.2545 9.02548 15.7812 10.3516 15.7812C11.6776 15.7813 12.9494 15.2545 13.8871 14.3168C14.8248 13.3791 15.3516 12.1073 15.3516 10.7812C15.3516 9.45517 14.8248 8.1834 13.8871 7.24572C12.9494 6.30803 11.6776 5.78125 10.3516 5.78125ZM16.8516 5.53125C16.8516 5.19973 16.7199 4.88179 16.4854 4.64737C16.251 4.41295 15.9331 4.28125 15.6016 4.28125C15.27 4.28125 14.9521 4.41295 14.7177 4.64737C14.4833 4.88179 14.3516 5.19973 14.3516 5.53125C14.3516 5.86277 14.4833 6.18071 14.7177 6.41513C14.9521 6.64955 15.27 6.78125 15.6016 6.78125C15.9331 6.78125 16.251 6.64955 16.4854 6.41513C16.7199 6.18071 16.8516 5.86277 16.8516 5.53125ZM10.3516 7.78125C11.1472 7.78125 11.9103 8.09732 12.4729 8.65993C13.0355 9.22254 13.3516 9.9856 13.3516 10.7812C13.3516 11.5769 13.0355 12.34 12.4729 12.9026C11.9103 13.4652 11.1472 13.7812 10.3516 13.7812C9.55591 13.7812 8.79285 13.4652 8.23024 12.9026C7.66763 12.34 7.35156 11.5769 7.35156 10.7812C7.35156 9.9856 7.66763 9.22254 8.23024 8.65993C8.79285 8.09732 9.55591 7.78125 10.3516 7.78125Z" fill="#B3BCC9"/>
</svg>
