<svg width="138" height="45" viewBox="0 0 138 45" fill="none" xmlns="http://www.w3.org/2000/svg">
<path d="M90.322 44.5597C92.9574 44.5256 95.4557 43.4989 97.2694 41.6506C99.1177 39.8026 100.144 37.3044 100.144 34.7032V10.9173C100.144 8.28213 99.1175 5.78353 97.3038 3.90136C95.4557 2.05307 92.9572 0.992188 90.322 0.992188H66.3991C63.7639 1.0265 61.2654 2.05307 59.4516 3.90136C57.6034 5.78368 56.5767 8.28228 56.5767 10.9173V34.7375C56.6109 40.145 60.9916 44.5256 66.3991 44.5597" fill="#CF381E"/>
<path d="M83.5456 24.1267C82.6213 27.2069 84.1271 30.287 87.31 29.0551C86.386 31.2797 84.8458 34.5993 84.8458 38.056C84.8458 38.056 84.8457 40.3833 86.5569 40.9652C86.5569 40.9652 88.9529 41.547 88.4398 39.4251C88.0633 38.0903 87.9608 36.7215 88.1318 35.3525C88.7133 32.5117 89.6035 29.7396 90.7672 27.0702C90.7672 27.0702 94.4292 19.438 96.5509 15.8788C96.5509 15.8788 97.4405 14.065 95.6267 14.065C95.0792 14.065 94.5657 14.3387 94.2237 14.7835L89.0561 23.9897C88.2684 25.4273 87.5159 25.8724 86.9338 25.8724C85.6336 25.8724 85.9071 23.7846 86.1126 23.0314C86.6942 20.4646 87.6184 18.0009 88.8505 15.6389C89.7746 13.6198 87.9263 13.4488 87.9263 13.4488C86.7625 13.1407 85.873 15.0575 85.873 15.0575L83.8195 19.2327C82.4847 21.5601 81.0131 23.7846 79.4388 25.9408C79.4388 25.9408 79.1646 26.2829 78.9596 26.1463C78.7541 25.975 78.8566 25.6329 78.8566 25.6329C79.1991 22.7921 79.7808 19.9857 80.5679 17.2134C80.6022 17.0422 80.6364 16.9055 80.6364 16.7344C80.671 16.3579 80.5679 15.9814 80.3285 15.7074C80.0889 15.3995 79.7469 15.2283 79.3702 15.2283C78.4461 15.1258 78.0011 15.5707 77.1801 16.563C75.3663 18.7878 73.2441 22.1416 72.2174 23.6477C72.1149 23.8186 71.9094 23.7845 71.9094 23.5449C71.9094 22.8602 74.3053 15.4678 74.3053 15.4678C74.3053 15.4678 74.5787 14.4412 73.7577 14.099C73.7577 14.099 72.4917 13.3119 71.4644 14.8518L66.5362 21.5601C66.1598 22.0734 65.9546 21.9024 65.9546 21.9024V21.4574L66.7417 17.0768C67.3578 13.7229 66.1942 13.5516 65.4412 13.4148C64.8935 13.4148 64.3118 13.5858 63.8325 13.894C62.2926 14.6468 61.1289 17.6929 61.1289 17.6929C61.1289 17.6929 60.7867 18.788 61.5395 19.2327C61.7792 19.3695 62.053 19.4723 62.3267 19.4381C63.4219 19.3697 63.6274 17.3504 64.4145 17.3504C64.5514 17.3504 64.5514 17.5217 64.5514 17.556L62.0188 28.1998C61.8477 28.8157 62.1215 29.4659 62.635 29.8082C62.9772 30.0137 63.3536 30.0478 63.73 29.9792C64.0724 29.8767 64.3803 29.6371 64.5856 29.3292L65.5095 27.8918C66.8445 25.5301 69.3086 22.1419 69.5482 22.1419C69.6507 22.1419 69.6853 22.1419 69.6853 22.2444L68.7609 28.5078C68.6582 29.0553 68.9664 29.637 69.4797 29.8766C69.9588 30.0476 70.4723 30.0134 70.9169 29.7738C71.4304 29.3632 71.8754 28.8497 72.1835 28.2679C72.6966 27.4466 75.1608 24.5374 76.6665 21.868C76.7695 21.6967 76.872 21.868 76.838 21.9708C76.5301 23.3739 76.2899 27.1042 76.2559 28.0283C76.1874 29.8423 77.5905 30.0476 77.6251 30.0476C78.5494 30.116 79.439 29.7052 79.9523 28.9525" fill="white"/>
<path d="M9.89475 28.2698H7.1567V22.1436C7.19101 21.4592 7.05391 20.7745 6.74613 20.1928C6.43805 19.7478 5.89053 19.4741 5.34286 19.5425C4.86367 19.5425 4.41879 19.6453 4.04238 19.8849C3.63152 20.1587 3.28943 20.5349 3.04997 20.9458V28.2696H0.31192V17.1471H1.85185L2.87871 18.6528C3.15248 18.4132 3.42624 18.2077 3.7 18.0026C3.97376 17.8313 4.24753 17.6947 4.5556 17.5576C4.86353 17.4206 5.17174 17.318 5.47967 17.2496C5.7876 17.1812 6.12998 17.1471 6.47222 17.1471C6.84863 17.1471 7.22503 17.181 7.56727 17.2838C7.84103 17.3866 8.1148 17.4891 8.38856 17.6601C8.59413 17.8313 8.79927 18.0368 8.97039 18.2422C9.17582 18.5157 9.31278 18.7553 9.44973 19.0293C9.65501 18.8237 9.89461 18.5843 10.1684 18.379C10.4421 18.1736 10.7501 17.9681 11.0923 17.7972C11.4004 17.5919 11.7428 17.4206 12.1192 17.2838C12.5299 17.181 12.9405 17.1125 13.3853 17.1125C13.9329 17.1125 14.4464 17.2496 14.9254 17.4891C15.3703 17.763 15.7468 18.1052 15.9864 18.5158C16.2602 19.0295 16.4655 19.5428 16.5681 20.1245C16.7051 20.7747 16.7736 21.4253 16.7736 22.1096V28.2699H14.0016V22.1438C14.0701 21.4593 13.9331 20.7747 13.591 20.193C13.283 19.748 12.7695 19.4742 12.222 19.5427C11.7771 19.5427 11.332 19.6455 10.9213 19.8851C10.5108 20.1588 10.1342 20.5012 9.89475 20.9459" fill="white"/>
<path d="M25.7057 23.2025H23.2758C22.7623 23.1683 22.2833 23.3054 21.8383 23.5792C21.5645 23.853 21.3934 24.2295 21.3934 24.6401C21.3934 25.0166 21.5303 25.3589 21.8041 25.6326C22.112 25.8722 22.5228 26.0089 22.9335 25.9747C23.2414 25.9747 23.5496 25.9407 23.8575 25.8379C24.1313 25.7694 24.4051 25.6667 24.6447 25.53C24.8843 25.359 25.0895 25.1876 25.2608 25.0166C25.4662 24.8111 25.603 24.6058 25.74 24.4005L25.7057 23.2025ZM25.7057 27.0359C25.3291 27.4122 24.8502 27.7202 24.3709 27.9258C23.7207 28.1654 23.0361 28.3021 22.3516 28.2679C21.8726 28.3021 21.3592 28.1996 20.9142 28.0283C20.5035 27.8573 20.1271 27.6179 19.7848 27.3098C19.4768 26.9674 19.2373 26.591 19.0662 26.1804C18.8951 25.7354 18.8266 25.2564 18.8266 24.7773C18.8266 22.7239 20.4352 21.389 23.0021 21.389H25.7399V20.7728C25.7399 20.3622 25.5003 20.0201 25.1582 19.8489C24.6105 19.6091 23.9945 19.4723 23.3785 19.5065C22.694 19.5065 22.0095 19.6091 21.3592 19.7461C20.8459 19.8832 20.3324 20.0542 19.8191 20.2597L19.5112 17.9664C19.6823 17.8639 19.9219 17.7954 20.2299 17.6929C20.5036 17.5902 20.846 17.5217 21.1541 17.4189C21.4619 17.3504 21.8727 17.2821 22.2833 17.2135C22.694 17.1453 23.1389 17.1453 23.5839 17.1453C24.8502 17.0421 26.1507 17.4532 27.109 18.2742C27.9646 19.1644 28.3753 20.362 28.3068 21.5599V28.2678H26.356L25.7057 27.0359Z" fill="white"/>
<path d="M41.1409 16.9775L36.726 22.522L41.757 28.2372H38.3347L33.6801 22.5904V28.2372H30.9764V13.0073H33.6801V22.5904L37.8213 16.9775H41.1409Z" fill="white"/>
<path d="M47.1997 19.6097C46.8575 19.6097 46.5154 19.6442 46.2073 19.7467C45.9335 19.8152 45.6598 19.9523 45.4543 20.1232C45.2147 20.2603 45.0436 20.4653 44.9067 20.7051C44.7699 20.9447 44.6672 21.1841 44.5987 21.458H49.4244C49.4244 21.2184 49.3902 20.9788 49.2874 20.7394C49.219 20.5338 49.0478 20.3287 48.8767 20.1577C48.6714 19.9864 48.4318 19.8496 48.1924 19.7468C47.85 19.6443 47.5079 19.5757 47.1997 19.6097ZM47.7131 25.8731C48.1238 25.8731 48.5687 25.8388 48.9794 25.736C49.3559 25.6675 49.7323 25.565 50.0746 25.4281C50.3826 25.3254 50.6906 25.1885 50.9645 25.0175C51.1014 24.949 51.2382 24.8463 51.3752 24.7438L51.8885 27.1734C51.3067 27.4815 50.6906 27.7553 50.0404 27.9606C49.2873 28.1661 48.5003 28.2686 47.7131 28.2686C46.8576 28.2686 46.0019 28.1318 45.1804 27.8581C44.5303 27.6186 43.8799 27.2419 43.3666 26.7287C42.8531 26.2494 42.4767 25.6337 42.2372 24.9833C41.9293 24.2987 41.7924 23.5458 41.758 22.7587C41.758 22.0399 41.8607 21.3209 42.1004 20.6366C42.3399 19.9523 42.6821 19.3703 43.1613 18.8228C43.6062 18.3097 44.188 17.8985 44.8383 17.6251C46.3098 17.0429 47.9867 17.0429 49.4584 17.6251C50.0746 17.8647 50.5878 18.2751 51.0328 18.7541C51.4435 19.2335 51.7514 19.781 51.9569 20.3628C52.1279 20.979 52.2308 21.6289 52.2308 22.2796C52.2308 22.4506 52.2308 22.6559 52.2308 22.861C52.1965 23.0666 52.1623 23.2719 52.1279 23.4428H44.5643C44.5986 23.8194 44.7012 24.1616 44.8724 24.4698C45.0093 24.7778 45.2489 25.0515 45.5227 25.257C45.7964 25.4964 46.1045 25.6674 46.4809 25.736C46.8575 25.8731 47.268 25.9416 47.7129 25.9416V25.8731H47.7131Z" fill="white"/>
<path d="M102.814 18.7209L106.442 14.3401H107.264V17.1122H110.378V19.508H107.264V24.094C107.264 24.3336 107.297 24.6074 107.366 24.8812C107.435 25.0524 107.537 25.2235 107.674 25.3945C107.811 25.4973 107.982 25.6001 108.153 25.6344C108.324 25.7027 108.496 25.7369 108.701 25.7369C109.009 25.7369 109.317 25.7027 109.591 25.6002C109.864 25.5659 110.104 25.4631 110.344 25.3606V27.7903C110.07 27.9274 109.762 28.0299 109.419 28.0984C108.461 28.3037 107.469 28.2694 106.545 27.9956C106.1 27.8588 105.724 27.6194 105.381 27.3113C105.107 27.0032 104.868 26.6267 104.731 26.2162C104.594 25.7712 104.491 25.2579 104.525 24.7787V19.5765H102.746" fill="white"/>
<path d="M115.032 19.4415C115.442 18.7569 115.955 18.1753 116.606 17.7302C117.154 17.3196 117.838 17.114 118.557 17.1487C118.763 17.1142 118.968 17.1142 119.173 17.1487L119.55 17.2169C119.55 17.2169 119.481 17.8331 119.07 19.7496C118.865 19.7157 118.66 19.6811 118.455 19.7157C117.975 19.6811 117.53 19.7839 117.085 19.9551C116.675 20.1261 116.332 20.3999 116.059 20.7423C115.785 21.0844 115.545 21.4952 115.408 21.94C115.272 22.4875 115.203 23.035 115.203 23.583V28.2715H112.465V17.1487H114.176" fill="white"/>
<path d="M131.836 19.5752C131.528 19.541 131.22 19.6092 130.946 19.7123C130.673 19.8148 130.433 19.9517 130.193 20.1227C129.988 20.2598 129.817 20.4648 129.645 20.6704C129.509 20.8759 129.372 21.0808 129.303 21.3204V24.4693C129.406 24.6746 129.543 24.8456 129.714 25.0168C129.885 25.1878 130.056 25.3248 130.261 25.4616C130.501 25.5987 130.74 25.7012 130.98 25.7696C131.664 25.9408 132.384 25.9066 133.034 25.6667C133.342 25.4957 133.65 25.2905 133.855 25.0167C134.095 24.7429 134.266 24.4005 134.368 24.0583C134.471 23.6477 134.539 23.2027 134.574 22.7578C134.574 22.3471 134.505 21.9024 134.368 21.4572C134.266 21.0805 134.095 20.7386 133.855 20.4305C133.615 20.1567 133.342 19.9168 133 19.78C132.657 19.6089 132.315 19.5406 131.939 19.5406L131.836 19.5752ZM132.589 17.1455C133.342 17.1109 134.061 17.2821 134.711 17.5902C135.293 17.8979 135.772 18.309 136.182 18.8565C136.559 19.4041 136.867 20.0202 137.038 20.6704C137.209 21.3548 137.312 22.0735 137.312 22.7581C137.312 23.4766 137.209 24.1957 137.004 24.8799C136.833 25.5303 136.525 26.112 136.114 26.6254C135.703 27.1387 135.224 27.5496 134.643 27.8234C134.027 28.1313 133.307 28.2681 132.623 28.2681C131.939 28.2681 131.289 28.1656 130.673 27.926C130.159 27.6861 129.68 27.3782 129.303 26.9335V32.7174H126.566V17.1455H128.174L129.235 18.4801C129.645 18.0693 130.159 17.7269 130.741 17.4534C131.323 17.2478 131.939 17.1109 132.555 17.1455H132.589Z" fill="white"/>
<path d="M122.357 12.5924C121.569 12.5924 120.953 13.2085 120.953 13.9955C120.953 14.7825 121.57 15.4332 122.357 15.4332C123.143 15.4332 123.76 14.7826 123.76 13.9955C123.794 13.6189 123.623 13.277 123.348 13.0031C123.109 12.7293 122.733 12.5583 122.357 12.5583V12.5924ZM123.691 28.2672H120.953V17.1446H123.691V28.2672Z" fill="white"/>
</svg>
