<svg width="21" height="18" viewBox="0 0 21 18" fill="none" xmlns="http://www.w3.org/2000/svg">
<path d="M20.5139 2.4362C19.7504 2.77389 18.9408 2.99567 18.1119 3.0942C18.9856 2.57163 19.6396 1.74921 19.9519 0.7802C19.1319 1.2682 18.2329 1.6102 17.2959 1.7952C16.6665 1.12178 15.8322 0.675163 14.9228 0.524785C14.0134 0.374406 13.0798 0.528691 12.2671 0.963653C11.4545 1.39862 10.8082 2.08988 10.429 2.92999C10.0497 3.7701 9.95861 4.71198 10.1699 5.6092C8.50697 5.52585 6.88019 5.09372 5.39515 4.34086C3.9101 3.588 2.59999 2.53125 1.54986 1.2392C1.17815 1.87765 0.982814 2.60343 0.983859 3.3422C0.983859 4.7922 1.72186 6.0732 2.84386 6.8232C2.17987 6.8023 1.53049 6.62298 0.949859 6.3002V6.3522C0.95006 7.3179 1.28423 8.25382 1.89571 9.00126C2.50719 9.7487 3.35834 10.2617 4.30486 10.4532C3.68847 10.6202 3.04217 10.6449 2.41486 10.5252C2.68173 11.3564 3.20187 12.0834 3.90245 12.6043C4.60304 13.1252 5.44899 13.414 6.32186 13.4302C5.45434 14.1115 4.46104 14.6152 3.39874 14.9124C2.33644 15.2096 1.22599 15.2945 0.130859 15.1622C2.04256 16.3916 4.26796 17.0443 6.54086 17.0422C14.2339 17.0422 18.4409 10.6692 18.4409 5.1422C18.4409 4.9622 18.4359 4.7802 18.4279 4.6022C19.2467 4.01037 19.9535 3.27722 20.5149 2.4372L20.5139 2.4362Z" fill="#B3BCC9"/>
</svg>
