<svg width="30" height="22" viewBox="0 0 30 22" fill="none" xmlns="http://www.w3.org/2000/svg">
<path d="M14.5082 0.601562C5.52883 1.27809 0.178131 6.81329 0.178131 13.4555C0.178131 18.8062 3.56076 21.7583 7.18939 21.7583C10.818 21.7583 13.7701 18.8062 13.7701 15.1776C13.7701 11.7335 11.0025 8.78136 7.5584 8.59686C8.78845 6.32127 11.3715 5.39874 14.5082 4.96822V0.601562ZM29.6377 0.601562C20.6584 1.27809 15.3077 6.81329 15.3077 13.4555C15.3077 18.8062 18.6903 21.7583 22.319 21.7583C25.9476 21.7583 28.8997 18.8062 28.8997 15.1776C28.8997 11.7335 26.1321 8.78136 22.688 8.59686C23.918 6.32127 26.5011 5.39874 29.6377 4.96822V0.601562Z" fill="white"/>
</svg>
