<svg width="21" height="17" viewBox="0 0 21 17" fill="none" xmlns="http://www.w3.org/2000/svg">
<path d="M19.8946 3.27925C20.3516 5.06125 20.3516 8.78125 20.3516 8.78125C20.3516 8.78125 20.3516 12.5013 19.8946 14.2833C19.6406 15.2683 18.8976 16.0433 17.9566 16.3053C16.2476 16.7812 10.3516 16.7812 10.3516 16.7812C10.3516 16.7812 4.45856 16.7812 2.74656 16.3053C1.80156 16.0393 1.05956 15.2653 0.808563 14.2833C0.351563 12.5013 0.351562 8.78125 0.351562 8.78125C0.351562 8.78125 0.351563 5.06125 0.808563 3.27925C1.06256 2.29425 1.80556 1.51925 2.74656 1.25725C4.45856 0.78125 10.3516 0.78125 10.3516 0.78125C10.3516 0.78125 16.2476 0.78125 17.9566 1.25725C18.9016 1.52325 19.6436 2.29725 19.8946 3.27925ZM8.35156 12.2812L14.3516 8.78125L8.35156 5.28125V12.2812Z" fill="#B3BCC9"/>
</svg>
